<svg width="46" height="14" viewBox="0 0 46 14" fill="none" xmlns="http://www.w3.org/2000/svg">
<path d="M2.384 8.874V6.678H5.12C5.468 6.678 5.786 6.606 6.074 6.462C6.362 6.318 6.59 6.108 6.758 5.832C6.926 5.556 7.01 5.22 7.01 4.824C7.01 4.44 6.926 4.11 6.758 3.834C6.59 3.558 6.362 3.348 6.074 3.204C5.786 3.06 5.468 2.988 5.12 2.988H2.384V0.791999H5.534C6.338 0.791999 7.064 0.954 7.712 1.278C8.36 1.602 8.87 2.07 9.242 2.682C9.626 3.282 9.818 3.996 9.818 4.824C9.818 5.652 9.626 6.372 9.242 6.984C8.87 7.584 8.36 8.052 7.712 8.388C7.064 8.712 6.338 8.874 5.534 8.874H2.384ZM0.224 13.5V0.791999H3.05V13.5H0.224ZM15.0276 13.698C14.1276 13.698 13.3116 13.5 12.5796 13.104C11.8596 12.696 11.2896 12.144 10.8696 11.448C10.4496 10.752 10.2396 9.972 10.2396 9.108C10.2396 8.244 10.4496 7.47 10.8696 6.786C11.2896 6.102 11.8596 5.562 12.5796 5.166C13.2996 4.758 14.1156 4.554 15.0276 4.554C15.9396 4.554 16.7556 4.752 17.4756 5.148C18.1956 5.544 18.7656 6.09 19.1856 6.786C19.6056 7.47 19.8156 8.244 19.8156 9.108C19.8156 9.972 19.6056 10.752 19.1856 11.448C18.7656 12.144 18.1956 12.696 17.4756 13.104C16.7556 13.5 15.9396 13.698 15.0276 13.698ZM15.0276 11.196C15.4236 11.196 15.7716 11.112 16.0716 10.944C16.3716 10.764 16.5996 10.518 16.7556 10.206C16.9236 9.882 17.0076 9.516 17.0076 9.108C17.0076 8.7 16.9236 8.346 16.7556 8.046C16.5876 7.734 16.3536 7.494 16.0536 7.326C15.7656 7.146 15.4236 7.056 15.0276 7.056C14.6436 7.056 14.3016 7.146 14.0016 7.326C13.7016 7.494 13.4676 7.734 13.2996 8.046C13.1316 8.358 13.0476 8.718 13.0476 9.126C13.0476 9.522 13.1316 9.882 13.2996 10.206C13.4676 10.518 13.7016 10.764 14.0016 10.944C14.3016 11.112 14.6436 11.196 15.0276 11.196ZM21.0967 13.5V4.752H23.8507V13.5H21.0967ZM23.8507 8.694L22.6987 7.794C22.9267 6.774 23.3107 5.982 23.8507 5.418C24.3907 4.854 25.1407 4.572 26.1007 4.572C26.5207 4.572 26.8867 4.638 27.1987 4.77C27.5227 4.89 27.8047 5.082 28.0447 5.346L26.4067 7.416C26.2867 7.284 26.1367 7.182 25.9567 7.11C25.7767 7.038 25.5727 7.002 25.3447 7.002C24.8887 7.002 24.5227 7.146 24.2467 7.434C23.9827 7.71 23.8507 8.13 23.8507 8.694ZM32.0962 13.68C31.2922 13.68 30.5722 13.482 29.9362 13.086C29.3122 12.69 28.8142 12.15 28.4422 11.466C28.0822 10.782 27.9022 10.002 27.9022 9.126C27.9022 8.25 28.0822 7.47 28.4422 6.786C28.8142 6.102 29.3122 5.562 29.9362 5.166C30.5722 4.77 31.2922 4.572 32.0962 4.572C32.6842 4.572 33.2122 4.686 33.6802 4.914C34.1602 5.142 34.5502 5.46 34.8502 5.868C35.1502 6.264 35.3182 6.72 35.3542 7.236V11.016C35.3182 11.532 35.1502 11.994 34.8502 12.402C34.5622 12.798 34.1782 13.11 33.6982 13.338C33.2182 13.566 32.6842 13.68 32.0962 13.68ZM32.6542 11.196C33.2422 11.196 33.7162 11.004 34.0762 10.62C34.4362 10.224 34.6162 9.726 34.6162 9.126C34.6162 8.718 34.5322 8.358 34.3642 8.046C34.2082 7.734 33.9802 7.494 33.6802 7.326C33.3922 7.146 33.0562 7.056 32.6722 7.056C32.2882 7.056 31.9462 7.146 31.6462 7.326C31.3582 7.494 31.1242 7.734 30.9442 8.046C30.7762 8.358 30.6922 8.718 30.6922 9.126C30.6922 9.522 30.7762 9.876 30.9442 10.188C31.1122 10.5 31.3462 10.746 31.6462 10.926C31.9462 11.106 32.2822 11.196 32.6542 11.196ZM34.5082 13.5V11.142L34.9222 9.018L34.5082 6.894V4.752H37.2082V13.5H34.5082ZM40.2993 13.5V1.134H43.0533V13.5H40.2993ZM38.3193 7.092V4.752H45.0333V7.092H38.3193Z" fill="white"/>
</svg>
