<svg width="30" height="40" viewBox="0 0 30 40" fill="none" xmlns="http://www.w3.org/2000/svg">
<path d="M15 12.5C15.3315 12.5 15.6495 12.6317 15.8839 12.8661C16.1183 13.1005 16.25 13.4185 16.25 13.75V17.5H20C20.3315 17.5 20.6495 17.6317 20.8839 17.8661C21.1183 18.1005 21.25 18.4185 21.25 18.75C21.25 19.0815 21.1183 19.3995 20.8839 19.6339C20.6495 19.8683 20.3315 20 20 20H16.25V23.75C16.25 24.0815 16.1183 24.3995 15.8839 24.6339C15.6495 24.8683 15.3315 25 15 25C14.6685 25 14.3505 24.8683 14.1161 24.6339C13.8817 24.3995 13.75 24.0815 13.75 23.75V20H10C9.66848 20 9.35054 19.8683 9.11612 19.6339C8.8817 19.3995 8.75 19.0815 8.75 18.75C8.75 18.4185 8.8817 18.1005 9.11612 17.8661C9.35054 17.6317 9.66848 17.5 10 17.5H13.75V13.75C13.75 13.4185 13.8817 13.1005 14.1161 12.8661C14.3505 12.6317 14.6685 12.5 15 12.5ZM8.75 28.75C8.75 28.4185 8.8817 28.1005 9.11612 27.8661C9.35054 27.6317 9.66848 27.5 10 27.5H20C20.3315 27.5 20.6495 27.6317 20.8839 27.8661C21.1183 28.1005 21.25 28.4185 21.25 28.75C21.25 29.0815 21.1183 29.3995 20.8839 29.6339C20.6495 29.8683 20.3315 30 20 30H10C9.66848 30 9.35054 29.8683 9.11612 29.6339C8.8817 29.3995 8.75 29.0815 8.75 28.75Z" fill="#386FFD"/>
<path d="M30 35V11.25L18.75 0H5C3.67392 0 2.40215 0.526784 1.46447 1.46447C0.526784 2.40215 0 3.67392 0 5V35C0 36.3261 0.526784 37.5979 1.46447 38.5355C2.40215 39.4732 3.67392 40 5 40H25C26.3261 40 27.5979 39.4732 28.5355 38.5355C29.4732 37.5979 30 36.3261 30 35ZM18.75 7.5C18.75 8.49456 19.1451 9.44839 19.8483 10.1517C20.5516 10.8549 21.5054 11.25 22.5 11.25H27.5V35C27.5 35.663 27.2366 36.2989 26.7678 36.7678C26.2989 37.2366 25.663 37.5 25 37.5H5C4.33696 37.5 3.70107 37.2366 3.23223 36.7678C2.76339 36.2989 2.5 35.663 2.5 35V5C2.5 4.33696 2.76339 3.70107 3.23223 3.23223C3.70107 2.76339 4.33696 2.5 5 2.5H18.75V7.5Z" fill="#7DF5CA"/>
</svg>
