<svg width="22" height="24" viewBox="0 0 22 24" fill="none" xmlns="http://www.w3.org/2000/svg">
<path fill-rule="evenodd" clip-rule="evenodd" d="M17.9244 21.1014C16.0704 22.1841 14.1096 20.733 12.6576 19.1468C13.9812 17.3536 15.2448 15.1762 15.3132 12.9499C15.3708 10.8337 14.2284 9.21186 12.5412 8.59579C11.6496 8.26562 10.656 8.23463 9.74277 8.50379C8.06157 8.99906 6.85677 10.4569 6.71277 12.3423C6.51477 14.724 7.91638 17.2292 9.35158 19.1456C8.50438 20.0847 7.35597 21.1122 6.11277 21.3897C3.95157 21.8993 2.10957 19.8526 2.83557 17.6204C3.20877 16.4839 8.97957 3.68152 9.95997 2.90633C10.5516 2.42543 11.49 2.4143 12.1044 2.95262C13.0056 3.7302 18.9108 16.6501 19.224 17.7973C19.5912 19.1539 19.0008 20.4842 17.9244 21.1014ZM11.0028 17.0772C10.5012 16.3499 10.0596 15.6332 9.70318 14.8126C9.18118 13.5912 8.83798 11.9846 9.94078 11.2513C10.6428 10.7811 11.6352 10.8409 12.2544 11.3983C13.0356 12.0898 12.84 13.3687 12.486 14.3532C12.108 15.382 11.5392 16.3116 11.0028 17.0772ZM13.8996 1.16551C12.2784 -0.442285 9.59517 -0.34299 8.07717 1.19422C6.70317 2.54721 0.500375 15.9433 0.260375 17.7317C-0.244825 21.1602 2.48998 24.1939 5.76958 23.969C7.85758 23.8554 9.56878 22.5633 11.004 21.0429C13.458 23.6567 16.608 25.035 19.4496 23.0743C20.916 22.0706 21.8328 20.3253 21.8028 18.4472C21.7752 15.9613 15.0396 2.2601 13.8996 1.16551Z" fill="white"/>
</svg>
