<svg width="24" height="24" viewBox="0 0 24 24" fill="none" xmlns="http://www.w3.org/2000/svg">
<path d="M11.6551 5.78794C11.3996 4.39528 12.0581 2.96208 12.8512 1.99622C13.7252 0.930515 15.225 0.11325 16.5068 0.0234375C16.7233 1.48355 16.1274 2.90616 15.343 3.91242C14.5016 4.99345 13.055 5.83177 11.6551 5.78794ZM19.1734 10.8343C19.57 9.72773 20.3557 8.73215 21.5747 8.06044C20.3429 6.52331 18.6134 5.63091 16.9814 5.63091C14.8221 5.63091 13.9091 6.65967 12.4093 6.65967C10.8643 6.65967 9.69217 5.63091 7.82181 5.63091C5.98773 5.63091 4.03543 6.74878 2.79728 8.65795C2.34203 9.36366 2.03364 10.2404 1.86545 11.2169C1.39876 13.9562 2.09589 17.5242 4.1754 20.6924C5.1865 22.2297 6.5342 23.9613 8.29482 23.9764C9.86321 23.9917 10.3082 22.9736 12.4314 22.9631C14.5577 22.951 14.9607 23.9869 16.5269 23.972C18.2881 23.9571 19.71 22.0408 20.7211 20.5036C21.4411 19.4006 21.7133 18.8434 22.2731 17.5963C19.4266 16.5228 18.2558 13.3861 19.1734 10.8343Z" fill="white"/>
</svg>
