<svg width="30" height="34" viewBox="0 0 30 34" fill="none" xmlns="http://www.w3.org/2000/svg">
<path d="M15 19.5C16.3807 19.5 17.5 18.3807 17.5 17C17.5 15.6193 16.3807 14.5 15 14.5C13.6193 14.5 12.5 15.6193 12.5 17C12.5 18.3807 13.6193 19.5 15 19.5Z" fill="#386FFD"/>
<path d="M15.0001 33.6667C12.5167 33.6667 10.3667 31.7167 8.86673 28.5167C7.31584 28.7762 5.72849 28.7195 4.20006 28.35C3.4535 28.1819 2.74979 27.8611 2.13313 27.4079C1.51647 26.9548 1.00019 26.379 0.61673 25.7167C-0.649936 23.3667 0.100063 20.2 2.3834 17C0.100063 13.8 -0.649936 10.6334 0.61673 8.28337C1.00019 7.62111 1.51647 7.04531 2.13313 6.59213C2.74979 6.13896 3.4535 5.81821 4.20006 5.65004C5.72849 5.28056 7.31584 5.22387 8.86673 5.48337C10.3667 2.28337 12.5167 0.333374 15.0001 0.333374C17.4834 0.333374 19.6334 2.28337 21.1334 5.48337C22.6843 5.22387 24.2716 5.28056 25.8001 5.65004C26.5466 5.81821 27.2503 6.13896 27.867 6.59213C28.4837 7.04531 28.9999 7.62111 29.3834 8.28337C30.6501 10.6334 29.9001 13.8 27.6167 17C29.9001 20.2 30.6501 23.3667 29.3834 25.7167C28.9999 26.379 28.4837 26.9548 27.867 27.4079C27.2503 27.8611 26.5466 28.1819 25.8001 28.35C24.2707 28.7128 22.6847 28.7695 21.1334 28.5167C19.6334 31.7167 17.4834 33.6667 15.0001 33.6667ZM12.2167 27.7334C13.1167 29.4 14.1501 30.3334 15.0001 30.3334C15.8501 30.3334 16.8834 29.4167 17.7667 27.7334C16.8255 27.4423 15.9017 27.0973 15.0001 26.7C14.0939 27.1001 13.1644 27.4451 12.2167 27.7334ZM22.2167 25.2834C23.1462 25.3956 24.0881 25.3448 25.0001 25.1334C25.3078 25.0793 25.6012 24.9627 25.8621 24.7907C26.123 24.6187 26.3458 24.395 26.5167 24.1334C27.0001 23.2167 26.6501 21.5834 25.4501 19.65C24.6986 20.4181 23.9028 21.1416 23.0667 21.8167C22.891 23.0049 22.6349 24.1798 22.3001 25.3334L22.2167 25.2834ZM4.61673 19.65C3.41673 21.5834 3.06673 23.2167 3.55006 24.1334C3.72099 24.395 3.94378 24.6187 4.20466 24.7907C4.46554 24.9627 4.75895 25.0793 5.06673 25.1334C5.92751 25.3445 6.81726 25.4121 7.70006 25.3334C7.38994 24.1947 7.15609 23.0365 7.00006 21.8667C6.16263 21.1754 5.3668 20.4353 4.61673 19.65ZM10.1501 20.05C10.8834 20.6 11.7001 21.15 12.5667 21.7167C13.4334 22.2834 14.2334 22.6667 15.0001 23.0667C15.8001 22.6667 16.6667 22.2167 17.4334 21.7167C18.2001 21.2167 19.1001 20.6334 19.8501 20.05C19.9524 19.0366 20.0025 18.0186 20.0001 17C20.0025 15.9815 19.9524 14.9635 19.8501 13.95C19.1167 13.4 18.3001 12.85 17.4334 12.2834C16.5667 11.7167 15.7667 11.3334 15.0001 10.9334C14.2001 11.3334 13.3334 11.7834 12.5667 12.2834C11.8001 12.7834 10.9001 13.3667 10.1501 13.95C9.95006 15.9785 9.95006 18.0216 10.1501 20.05ZM23.0001 12.1834C23.8361 12.8585 24.6319 13.582 25.3834 14.35C26.5834 12.4167 26.9334 10.7834 26.4501 9.86671C26.2791 9.60511 26.0563 9.38139 25.7955 9.20938C25.5346 9.03737 25.2412 8.92074 24.9334 8.86671C24.074 8.64721 23.1828 8.57953 22.3001 8.66671C22.6124 9.82182 22.8462 10.9967 23.0001 12.1834ZM6.75006 8.66671C6.18802 8.65772 5.62736 8.725 5.0834 8.86671C4.77562 8.92074 4.48221 9.03737 4.22133 9.20938C3.96045 9.38139 3.73765 9.60511 3.56673 9.86671C3.0834 10.7834 3.4334 12.4167 4.6334 14.35C5.37952 13.5825 6.16975 12.859 7.00006 12.1834C7.15388 10.9967 7.38775 9.82182 7.70006 8.66671H6.75006ZM12.2334 6.26671C13.1747 6.5578 14.0984 6.90281 15.0001 7.30004C15.9063 6.90002 16.8357 6.55495 17.7834 6.26671C16.8834 4.58337 15.8501 3.66671 15.0001 3.66671C14.1501 3.66671 13.1167 4.58337 12.2334 6.26671Z" fill="#7DF5CA"/>
</svg>
