<svg width="38" height="38" viewBox="0 0 38 38" fill="none" xmlns="http://www.w3.org/2000/svg">
<path d="M22.3334 2.33337C25.6667 2.33337 27.3334 4.01671 27.3334 7.38337V19.1334C27.3334 22.45 24.9834 23.7334 22.1001 22L19.9001 20.6667C19.4001 20.3667 18.6001 20.3667 18.1001 20.6667L15.9001 22C13.0167 23.7334 10.6667 22.45 10.6667 19.1334V7.38337C10.6667 4.01671 12.3334 2.33337 15.6667 2.33337H22.3334Z" stroke="#386FFD" stroke-width="3" stroke-linecap="round" stroke-linejoin="round"/>
<path d="M10.3666 7.3166C4.68325 8.2666 2.33325 11.7666 2.33325 18.8333V23.8833C2.33325 32.3 5.66659 35.6667 13.9999 35.6667H23.9999C32.3333 35.6667 35.6666 32.3 35.6666 23.8833V18.8333C35.6666 11.6499 33.2333 8.13327 27.3333 7.2666" stroke="#7DF5CA" stroke-width="3" stroke-linecap="round" stroke-linejoin="round"/>
</svg>
