<svg width="38" height="38" viewBox="0 0 38 38" fill="none" xmlns="http://www.w3.org/2000/svg">
<path d="M35.6667 13.1667C35.6667 19.15 30.8167 24 24.8333 24C24.55 24 24.25 23.9834 23.9667 23.9667C23.55 18.6834 19.3167 14.45 14.0333 14.0334C14.0166 13.75 14 13.45 14 13.1667C14 7.18337 18.85 2.33337 24.8333 2.33337C30.8167 2.33337 35.6667 7.18337 35.6667 13.1667Z" stroke="#386FFD" stroke-width="3" stroke-linecap="round" stroke-linejoin="round"/>
<path d="M23.9999 24.8333C23.9999 30.8167 19.1499 35.6667 13.1666 35.6667C7.18325 35.6667 2.33325 30.8167 2.33325 24.8333C2.33325 18.85 7.18325 14 13.1666 14C13.4499 14 13.7499 14.0166 14.0332 14.0333C19.3166 14.45 23.5499 18.6833 23.9666 23.9667C23.9833 24.25 23.9999 24.55 23.9999 24.8333Z" stroke="#7DF5CA" stroke-width="3" stroke-linecap="round" stroke-linejoin="round"/>
<path d="M11.7 23.3666L13.1667 20.6666L14.6333 23.3666L17.3333 24.8333L14.6333 26.3L13.1667 29L11.7 26.3L9 24.8333L11.7 23.3666Z" stroke="#7DF5CA" stroke-width="3" stroke-linecap="round" stroke-linejoin="round"/>
</svg>
