<svg width="34" height="36" viewBox="0 0 34 36" fill="none" xmlns="http://www.w3.org/2000/svg">
<path d="M5.88182 30.3666C5.69849 30.3666 5.49849 30.3166 5.33182 30.2333L1.63182 28.3833C1.21515 28.1666 0.948486 27.7333 0.948486 27.2666V22.6333C0.948486 21.95 1.51515 21.3833 2.19849 21.3833C2.88182 21.3833 3.44849 21.95 3.44849 22.6333V26.4833L6.46515 27.9833C7.08182 28.3 7.3318 29.05 7.0318 29.6666C6.7818 30.1 6.34849 30.3666 5.88182 30.3666Z" fill="#7DF5CA"/>
<path d="M16.9992 35.9167C16.8992 35.9167 16.7992 35.9 16.7158 35.8833C16.6158 35.8667 16.5158 35.8167 16.4158 35.7667L12.7325 33.9333C12.1158 33.6167 11.8658 32.8667 12.1658 32.25C12.4825 31.6333 13.2325 31.3833 13.8492 31.6833L15.7492 32.6333V30.0333C15.7492 29.35 16.3158 28.7833 16.9992 28.7833C17.6825 28.7833 18.2492 29.35 18.2492 30.0333V32.6333L20.1492 31.6833C20.7658 31.3833 21.5158 31.6333 21.8325 32.25C22.1492 32.8667 21.8992 33.6167 21.2658 33.9333L17.5825 35.7667C17.4825 35.8167 17.3825 35.85 17.2825 35.8833C17.1825 35.9 17.0992 35.9167 16.9992 35.9167Z" fill="#386FFD"/>
<path d="M28.117 30.3667C27.667 30.3667 27.217 30.1167 27.0003 29.6834C26.6836 29.0667 26.9336 28.3167 27.567 28L30.5836 26.5002V22.65C30.5836 21.9667 31.1503 21.4 31.8336 21.4C32.517 21.4 33.0836 21.9667 33.0836 22.65V27.2835C33.0836 27.7502 32.817 28.1835 32.4003 28.4002L28.7003 30.2502C28.4836 30.3169 28.3003 30.3667 28.117 30.3667Z" fill="#7DF5CA"/>
<path d="M16.9992 22.0333C16.3158 22.0333 15.7492 21.4667 15.7492 20.7833V16.9333L12.7325 15.4335C12.1158 15.1168 11.8658 14.3667 12.1658 13.7501C12.4825 13.1334 13.2325 12.8834 13.8492 13.1834L16.9992 14.75L20.1492 13.1834C20.7658 12.8834 21.5158 13.1167 21.8325 13.7501C22.1492 14.3667 21.8992 15.1168 21.2658 15.4335L18.2492 16.9333V20.7833C18.2492 21.4667 17.6825 22.0333 16.9992 22.0333Z" fill="#386FFD"/>
<path d="M2.18237 14.6164C1.49904 14.6164 0.932373 14.0498 0.932373 13.3664V8.76642V8.74974C0.932373 8.64974 0.949023 8.54974 0.96569 8.4664C0.999023 8.33307 1.04904 8.2164 1.11571 8.09974C1.16571 8.0164 1.21569 7.94974 1.28236 7.88307C1.34902 7.8164 1.43236 7.74975 1.51569 7.69975C1.54902 7.68309 1.59902 7.64974 1.63236 7.63307L5.31569 5.79974C5.93236 5.49974 6.68236 5.73309 6.99902 6.36642C7.31569 6.98309 7.06571 7.73307 6.43237 8.04974L4.96569 8.78309L6.43237 9.51642C7.04904 9.83309 7.29902 10.5831 6.99902 11.1997C6.69902 11.8164 5.93236 12.0664 5.31569 11.7664L3.41569 10.8164V13.4164C3.43236 14.0664 2.88236 14.6164 2.18237 14.6164Z" fill="#7DF5CA"/>
<path d="M20.6997 4.43344C20.5163 4.43344 20.3163 4.38344 20.1497 4.30011L16.9997 2.73344L13.8497 4.30011C13.233 4.61677 12.483 4.36677 12.1663 3.73344C11.8496 3.11677 12.0996 2.36676 12.733 2.05009L16.433 0.200122C16.783 0.0167887 17.1997 0.0167887 17.5497 0.200122L21.2497 2.05009C21.8663 2.36676 22.1163 3.11677 21.8163 3.73344C21.5997 4.18344 21.1663 4.43344 20.6997 4.43344Z" fill="#386FFD"/>
<path d="M31.8173 14.6167C31.1339 14.6167 30.5673 14.05 30.5673 13.3667V10.7667L28.6673 11.7167C28.0506 12.0333 27.3006 11.7833 26.9839 11.15C26.6673 10.5333 26.9173 9.78336 27.5506 9.4667L29.0173 8.73336L27.5506 8.00001C26.9339 7.68335 26.6839 6.93336 26.9839 6.3167C27.2839 5.70003 28.0506 5.45001 28.6673 5.75001L32.3506 7.58335C32.3839 7.60001 32.4339 7.61668 32.4673 7.65001C32.5673 7.70001 32.6506 7.78335 32.7339 7.86668C32.7839 7.93335 32.8339 8.00001 32.8839 8.06668C32.9506 8.18335 33.0006 8.30001 33.0339 8.43335C33.0506 8.53335 33.0673 8.63335 33.0673 8.71668V8.73336V13.3333C33.0673 14.0667 32.5006 14.6167 31.8173 14.6167Z" fill="#7DF5CA"/>
</svg>
