<svg width="38" height="38" viewBox="0 0 38 38" fill="none" xmlns="http://www.w3.org/2000/svg">
<path d="M17.2844 2.33337H13.9511C5.61776 2.33337 2.28442 5.66671 2.28442 14V24C2.28442 32.3334 5.61776 35.6667 13.9511 35.6667H23.9511C32.2844 35.6667 35.6178 32.3334 35.6178 24V20.6667" stroke="#7DF5CA" stroke-width="3" stroke-linecap="round" stroke-linejoin="round"/>
<path d="M35.4658 4.93374C33.4158 10.0504 28.2658 17.017 23.9658 20.467L21.3325 22.567C20.9992 22.817 20.6658 23.017 20.2825 23.167C20.2825 22.917 20.2658 22.667 20.2325 22.4004C20.0825 21.2837 19.5825 20.2337 18.6825 19.3504C17.7658 18.4337 16.6658 17.917 15.5324 17.767C15.2658 17.7504 14.9991 17.7337 14.7324 17.7504C14.8824 17.3337 15.0991 16.9504 15.3824 16.6337L17.4825 14.0004C20.9325 9.70041 27.9158 4.51707 33.0158 2.46707C33.7992 2.16707 34.5658 2.40041 35.0492 2.88374C35.5492 3.38374 35.7825 4.15041 35.4658 4.93374Z" stroke="#386FFD" stroke-width="3" stroke-linecap="round" stroke-linejoin="round"/>
<path d="M20.3001 23.15C20.3001 24.6167 19.7334 26.0167 18.6834 27.0833C17.8668 27.9 16.7668 28.4667 15.4501 28.6333L12.1667 28.9833C10.3834 29.1833 8.85007 27.6667 9.05007 25.85L9.40007 22.5667C9.71674 19.65 12.1501 17.7833 14.7501 17.7333C15.0167 17.7167 15.2834 17.7333 15.5501 17.75C16.6834 17.9 17.7834 18.4167 18.7001 19.3333C19.6001 20.2333 20.1001 21.2667 20.2501 22.3833C20.2834 22.65 20.3001 22.9167 20.3001 23.15Z" stroke="#386FFD" stroke-width="3" stroke-linecap="round" stroke-linejoin="round"/>
<path opacity="0.4" d="M25.3655 18.9665C25.3655 15.4832 22.5488 12.6499 19.0488 12.6499" stroke="#386FFD" stroke-width="3" stroke-linecap="round" stroke-linejoin="round"/>
</svg>
