<svg width="34" height="32" viewBox="0 0 34 32" fill="none" xmlns="http://www.w3.org/2000/svg">
<path d="M2 23.5C1.31667 23.5 0.75 22.9333 0.75 22.25V9.75C0.75 9.06667 1.31667 8.5 2 8.5C2.68333 8.5 3.25 9.06667 3.25 9.75V22.25C3.25 22.9333 2.68333 23.5 2 23.5Z" fill="#386FFD"/>
<path d="M9.5 27.6667C8.81667 27.6667 8.25 27.1 8.25 26.4167V5.58337C8.25 4.90004 8.81667 4.33337 9.5 4.33337C10.1833 4.33337 10.75 4.90004 10.75 5.58337V26.4167C10.75 27.1 10.1833 27.6667 9.5 27.6667Z" fill="#7DF5CA"/>
<path d="M17 31.8333C16.3167 31.8333 15.75 31.2666 15.75 30.5833V1.41663C15.75 0.733293 16.3167 0.166626 17 0.166626C17.6833 0.166626 18.25 0.733293 18.25 1.41663V30.5833C18.25 31.2666 17.6833 31.8333 17 31.8333Z" fill="#386FFD"/>
<path d="M24.5 27.6667C23.8167 27.6667 23.25 27.1 23.25 26.4167V5.58337C23.25 4.90004 23.8167 4.33337 24.5 4.33337C25.1833 4.33337 25.75 4.90004 25.75 5.58337V26.4167C25.75 27.1 25.1833 27.6667 24.5 27.6667Z" fill="#7DF5CA"/>
<path d="M32 23.5C31.3167 23.5 30.75 22.9333 30.75 22.25V9.75C30.75 9.06667 31.3167 8.5 32 8.5C32.6833 8.5 33.25 9.06667 33.25 9.75V22.25C33.25 22.9333 32.6833 23.5 32 23.5Z" fill="#386FFD"/>
</svg>
