<svg width="24" height="24" viewBox="0 0 24 24" fill="none" xmlns="http://www.w3.org/2000/svg">
<g clip-path="url(#clip0_4_421)">
<path fill-rule="evenodd" clip-rule="evenodd" d="M23.7858 9.6047H12.2536C12.2536 10.804 12.2535 13.2025 12.2462 14.4018H18.9289C18.6728 15.6011 17.7648 17.2805 16.482 18.126C16.482 18.126 16.4795 18.133 16.4771 18.1318C14.7715 19.258 12.5207 19.5136 10.8494 19.1777C8.22976 18.6572 6.15657 16.7574 5.31481 14.3443C5.31971 14.3407 5.3234 14.3075 5.32708 14.3051C4.80021 12.8083 4.80021 10.804 5.32708 9.6047H5.32585C6.00466 7.40035 8.1403 5.38917 10.7636 4.83868C12.8735 4.39133 15.2543 4.8756 17.0052 6.51388C17.238 6.28601 20.2276 3.36697 20.4518 3.1295C14.4701 -2.28785 4.8921 -0.382177 1.30817 6.61349H1.30694C1.30694 6.61349 1.30818 6.61378 1.30083 6.62696C-0.472145 10.063 -0.39863 14.1118 1.31308 17.3836C1.30818 17.3872 1.3045 17.3894 1.30083 17.393C2.85203 20.4033 5.67506 22.7119 9.07642 23.591C12.6898 24.5385 17.2882 23.8909 20.3685 21.1049L20.3722 21.1084C22.9821 18.7577 24.6068 14.7534 23.7858 9.6047Z" fill="white"/>
</g>
<defs>
<clipPath id="clip0_4_421">
<rect width="24" height="24" fill="white"/>
</clipPath>
</defs>
</svg>
