<svg width="38" height="40" viewBox="0 0 38 40" fill="none" xmlns="http://www.w3.org/2000/svg">
<path d="M32.75 2.5C33.413 2.5 34.0489 2.76339 34.5178 3.23223C34.9866 3.70107 35.25 4.33696 35.25 5V35C35.25 35.663 34.9866 36.2989 34.5178 36.7678C34.0489 37.2366 33.413 37.5 32.75 37.5H5.25C4.58696 37.5 3.95107 37.2366 3.48223 36.7678C3.01339 36.2989 2.75 35.663 2.75 35V5C2.75 4.33696 3.01339 3.70107 3.48223 3.23223C3.95107 2.76339 4.58696 2.5 5.25 2.5H32.75ZM5.25 0C3.92392 0 2.65215 0.526784 1.71447 1.46447C0.776784 2.40215 0.25 3.67392 0.25 5V35C0.25 36.3261 0.776784 37.5979 1.71447 38.5355C2.65215 39.4732 3.92392 40 5.25 40H32.75C34.0761 40 35.3479 39.4732 36.2855 38.5355C37.2232 37.5979 37.75 36.3261 37.75 35V5C37.75 3.67392 37.2232 2.40215 36.2855 1.46447C35.3479 0.526784 34.0761 0 32.75 0L5.25 0Z" fill="#7DF5CA"/>
<path d="M15.25 7.5C15.25 6.83696 15.5134 6.20107 15.9822 5.73223C16.4511 5.26339 17.087 5 17.75 5H20.25C20.913 5 21.5489 5.26339 22.0178 5.73223C22.4866 6.20107 22.75 6.83696 22.75 7.5V15C22.75 15.663 22.4866 16.2989 22.0178 16.7678C21.5489 17.2366 20.913 17.5 20.25 17.5H17.75C17.087 17.5 16.4511 17.2366 15.9822 16.7678C15.5134 16.2989 15.25 15.663 15.25 15V7.5ZM5.25 7.5C5.25 6.83696 5.51339 6.20107 5.98223 5.73223C6.45107 5.26339 7.08696 5 7.75 5H10.25C10.913 5 11.5489 5.26339 12.0178 5.73223C12.4866 6.20107 12.75 6.83696 12.75 7.5V25C12.75 25.663 12.4866 26.2989 12.0178 26.7678C11.5489 27.2366 10.913 27.5 10.25 27.5H7.75C7.08696 27.5 6.45107 27.2366 5.98223 26.7678C5.51339 26.2989 5.25 25.663 5.25 25V7.5ZM25.25 7.5C25.25 6.83696 25.5134 6.20107 25.9822 5.73223C26.4511 5.26339 27.087 5 27.75 5H30.25C30.913 5 31.5489 5.26339 32.0178 5.73223C32.4866 6.20107 32.75 6.83696 32.75 7.5V32.5C32.75 33.163 32.4866 33.7989 32.0178 34.2678C31.5489 34.7366 30.913 35 30.25 35H27.75C27.087 35 26.4511 34.7366 25.9822 34.2678C25.5134 33.7989 25.25 33.163 25.25 32.5V7.5Z" fill="#386FFD"/>
</svg>
