<svg width="30" height="12" viewBox="0 0 30 12" fill="none" xmlns="http://www.w3.org/2000/svg">
<path d="M29.2379 10.203C28.8199 10.203 28.4809 10.542 28.4809 10.96C28.4809 11.378 28.8199 11.717 29.2379 11.717C29.6559 11.717 29.9949 11.378 29.9949 10.96C29.9949 10.751 29.9099 10.562 29.7729 10.425C29.6359 10.288 29.4469 10.203 29.2379 10.203ZM29.6729 11.402C29.5599 11.515 29.4039 11.585 29.2309 11.585C28.8859 11.585 28.6059 11.305 28.6059 10.96C28.6059 10.615 28.8839 10.337 29.2279 10.335L29.2309 10.334C29.5759 10.335 29.8559 10.614 29.8559 10.96C29.8559 11.133 29.7859 11.289 29.6729 11.402ZM29.5249 10.96C29.5639 10.919 29.5879 10.863 29.5879 10.802C29.5879 10.798 29.5879 10.794 29.5879 10.79C29.5879 10.785 29.5889 10.78 29.5889 10.775C29.5889 10.705 29.5579 10.642 29.5099 10.599C29.4549 10.555 29.3839 10.528 29.3069 10.528C29.2969 10.528 29.2879 10.528 29.2779 10.529H28.9389V11.402H29.1009V11.046H29.2169L29.4329 11.402H29.6029L29.3779 11.031C29.4359 11.025 29.4869 11 29.5249 10.961V10.96ZM29.2919 10.899H29.0999V10.652H29.2919C29.3179 10.653 29.3409 10.659 29.3639 10.668L29.3619 10.667C29.3819 10.674 29.3979 10.687 29.4079 10.705C29.4239 10.721 29.4229 10.744 29.4229 10.775C29.4229 10.776 29.4229 10.777 29.4229 10.777C29.4229 10.801 29.4169 10.824 29.4079 10.844C29.3949 10.859 29.3789 10.871 29.3629 10.881H29.3619C29.3409 10.889 29.3179 10.895 29.2929 10.897L29.2919 10.899ZM0.00390625 0.344984H2.17491V2.51598H0.00390625V0.344984ZM7.84591 3.67298C7.83291 3.67298 7.81791 3.67398 7.80291 3.67398C7.32691 3.67398 6.87591 3.78498 6.47591 3.98298L6.49291 3.97498C6.08191 4.17798 5.73891 4.45998 5.47091 4.80298L5.46591 4.80898L5.35691 4.95498V3.82798H3.32491V11.646H5.37291V7.62998C5.37091 7.59398 5.36991 7.55298 5.36991 7.51098C5.36991 6.93698 5.57591 6.41198 5.91691 6.00398L5.91391 6.00798C6.23691 5.66498 6.69391 5.45198 7.19991 5.45198C7.20591 5.45198 7.21291 5.45198 7.21891 5.45198C7.25191 5.44998 7.28991 5.44798 7.32891 5.44798C7.81891 5.44798 8.26091 5.65698 8.56891 5.99098L8.56991 5.99198C8.85291 6.36898 9.02191 6.84498 9.02191 7.36098C9.02191 7.40698 9.02091 7.45298 9.01791 7.49798V7.49198V11.646H11.0959V7.21198C11.1009 7.14098 11.1039 7.05798 11.1039 6.97398C11.1039 6.06698 10.7769 5.23698 10.2349 4.59398L10.2399 4.59898C9.67591 4.02298 8.8899 3.66698 8.02091 3.66698C7.95891 3.66698 7.89691 3.66898 7.83591 3.67198H7.84391L7.84591 3.67298ZM25.5219 0.182983H27.5849V11.655H25.5219V0.182983ZM23.3359 4.85698C22.9839 4.49298 22.5589 4.19998 22.0859 4.00198L22.0609 3.99298C21.5939 3.79698 21.0499 3.68298 20.4799 3.68298C20.4599 3.68298 20.4389 3.68298 20.4189 3.68298H20.4219C20.4129 3.68298 20.4019 3.68298 20.3899 3.68298C18.7269 3.68298 17.2989 4.69098 16.6849 6.12998L16.6749 6.15598C16.4739 6.61198 16.3569 7.14498 16.3569 7.70398C16.3569 7.71898 16.3569 7.73398 16.3569 7.74898V7.74698C16.3569 7.75598 16.3569 7.76698 16.3569 7.77798C16.3569 8.33998 16.4679 8.87698 16.6679 9.36698L16.6579 9.33898C16.8629 9.83998 17.1479 10.268 17.5009 10.629L17.4999 10.628C17.8619 10.993 18.2969 11.286 18.7799 11.485L18.8059 11.494C19.2889 11.7 19.8509 11.819 20.4409 11.819C20.4559 11.819 20.4709 11.819 20.4859 11.819H20.4839C20.5189 11.82 20.5609 11.821 20.6029 11.821C21.9419 11.821 23.1429 11.227 23.9559 10.288L23.9609 10.282L22.4779 9.15198C21.9849 9.68698 21.2819 10.021 20.4999 10.025C20.4669 10.027 20.4279 10.028 20.3889 10.028C19.8989 10.028 19.4439 9.87698 19.0689 9.61898L19.0769 9.62398C18.7199 9.35898 18.4569 8.98298 18.3389 8.54798L18.3359 8.53398L18.3119 8.46398H24.4539V7.73098C24.4539 7.72398 24.4539 7.71598 24.4539 7.70798C24.4539 7.14698 24.3459 6.60998 24.1499 6.11898L24.1599 6.14798C23.9539 5.64898 23.6749 5.22098 23.3319 4.85498L23.3339 4.85698H23.3359ZM18.3299 7.01198C18.4889 6.10598 19.2699 5.42698 20.2089 5.42698C20.2759 5.42698 20.3419 5.42998 20.4069 5.43698L20.3989 5.43598C20.4589 5.42898 20.5289 5.42498 20.5989 5.42498C21.5359 5.42498 22.3159 6.10098 22.4759 6.99198L22.4779 7.00398L18.3299 7.01198ZM14.2889 0.784984H12.2259V8.34898C12.2249 8.38698 12.2249 8.43198 12.2249 8.47698C12.2249 9.00398 12.2849 9.51698 12.3969 10.01L12.3879 9.96398C12.4829 10.368 12.6749 10.718 12.9389 11L12.9379 10.999C13.2079 11.265 13.5469 11.462 13.9259 11.559L13.9409 11.562C14.3679 11.671 14.8589 11.734 15.3649 11.734C15.4159 11.734 15.4669 11.733 15.5169 11.732H15.5089H15.7789V9.81598C15.7559 9.81598 15.7289 9.81698 15.7029 9.81698C15.4689 9.81698 15.2379 9.79998 15.0129 9.76698L15.0389 9.76998C14.8499 9.75198 14.6809 9.67298 14.5509 9.55298L14.5519 9.55398C14.4379 9.42798 14.3599 9.26598 14.3359 9.08698V9.08298C14.3059 8.87798 14.2889 8.64098 14.2889 8.39998C14.2889 8.37398 14.2889 8.34798 14.2899 8.32198V8.32598V5.59898H15.7809V3.82898H14.2899L14.2889 0.784984ZM0.0579063 3.82898H2.12091V11.647H0.0579063V3.82898Z" fill="white"/>
</svg>
