<svg width="38" height="38" viewBox="0 0 38 38" fill="none" xmlns="http://www.w3.org/2000/svg">
<path d="M30.6666 25.6667V9.83333C30.6666 8 29.1666 6.5 27.3333 6.5H19.8333" stroke="#7DF5CA" stroke-width="3" stroke-linecap="round" stroke-linejoin="round"/>
<path d="M24 2.33337L19 6.50004L24 10.6667" stroke="#7DF5CA" stroke-width="3" stroke-linecap="round" stroke-linejoin="round"/>
<path d="M7.33325 14V25.6667" stroke="#7DF5CA" stroke-width="3" stroke-linecap="round" stroke-linejoin="round"/>
<path d="M7.74992 13.1667C10.7415 13.1667 13.1666 10.7416 13.1666 7.75004C13.1666 4.75849 10.7415 2.33337 7.74992 2.33337C4.75837 2.33337 2.33325 4.75849 2.33325 7.75004C2.33325 10.7416 4.75837 13.1667 7.74992 13.1667Z" stroke="#386FFD" stroke-width="3" stroke-linecap="round" stroke-linejoin="round"/>
<path d="M7.33325 35.6666C10.0947 35.6666 12.3333 33.4281 12.3333 30.6666C12.3333 27.9051 10.0947 25.6666 7.33325 25.6666C4.57184 25.6666 2.33325 27.9051 2.33325 30.6666C2.33325 33.4281 4.57184 35.6666 7.33325 35.6666Z" stroke="#386FFD" stroke-width="3" stroke-linecap="round" stroke-linejoin="round"/>
<path d="M30.6667 35.6666C33.4282 35.6666 35.6667 33.4281 35.6667 30.6666C35.6667 27.9051 33.4282 25.6666 30.6667 25.6666C27.9052 25.6666 25.6667 27.9051 25.6667 30.6666C25.6667 33.4281 27.9052 35.6666 30.6667 35.6666Z" stroke="#386FFD" stroke-width="3" stroke-linecap="round" stroke-linejoin="round"/>
</svg>
