<svg width="40" height="40" viewBox="0 0 40 40" fill="none" xmlns="http://www.w3.org/2000/svg">
<g clip-path="url(#clip0_8_233)">
<path fill-rule="evenodd" clip-rule="evenodd" d="M20.0087 0C8.96006 0 -0.0100098 8.97002 -0.0100098 20.0186C-0.0100098 31.0672 8.96006 40.0373 20.0087 40.0373C31.0573 40.0373 40.0273 31.0672 40.0273 20.0186C40.0273 8.97002 31.0573 0 20.0087 0ZM20.0087 2.7933C29.5156 2.7933 37.234 10.5117 37.234 20.0186C37.234 29.5256 29.5156 37.244 20.0087 37.244C10.5017 37.244 2.78329 29.5256 2.78329 20.0186C2.78329 10.5117 10.5017 2.7933 20.0087 2.7933ZM25.2068 23.201C24.1399 24.9959 22.1815 26.2005 19.9438 26.2005C16.5677 26.2005 13.8267 23.4596 13.8267 20.0835C13.8267 16.7074 16.5677 13.9665 19.9438 13.9665C23.3199 13.9665 26.0608 16.7074 26.0608 20.0835C26.0608 20.8543 26.6866 21.4802 27.4574 21.4802C28.2283 21.4802 28.8541 20.8543 28.8541 20.0835C28.8541 15.1658 24.8615 11.1732 19.9438 11.1732C15.026 11.1732 11.0334 15.1658 11.0334 20.0835C11.0334 25.0013 15.026 28.9938 19.9438 28.9938C23.202 28.9938 26.0545 27.2416 27.608 24.6282C28.0018 23.9656 27.7836 23.1079 27.121 22.714C26.4584 22.3202 25.6007 22.5384 25.2068 23.201Z" fill="#386FFD"/>
<path fill-rule="evenodd" clip-rule="evenodd" d="M37.234 20.0186C37.234 29.5256 29.5156 37.244 20.0087 37.244C10.5017 37.244 2.78329 29.5256 2.78329 20.0186C2.78329 10.5117 10.5017 2.7933 20.0087 2.7933C24.7621 2.7933 29.0683 4.72313 32.1862 7.84104C32.7313 8.38611 33.6163 8.38611 34.1614 7.84104C34.7065 7.29601 34.7065 6.41096 34.1614 5.86589C30.5378 2.24228 25.533 0 20.0087 0C8.96006 0 -0.0100098 8.97002 -0.0100098 20.0186C-0.0100098 31.0672 8.96006 40.0373 20.0087 40.0373C31.0573 40.0373 40.0273 31.0672 40.0273 20.0186C40.0273 19.2478 39.4015 18.622 38.6306 18.622C37.8598 18.622 37.234 19.2478 37.234 20.0186ZM30.7384 29.7565C30.9042 29.782 31.0739 29.7952 31.2467 29.7952C33.0811 29.7952 34.5705 28.3059 34.5705 26.4715C34.5705 24.637 33.0811 23.1477 31.2467 23.1477C30.4796 23.1477 29.7728 23.4082 29.2099 23.8455L23.2273 20.6014C23.2538 20.4326 23.2675 20.2596 23.2675 20.0835C23.2675 18.2563 21.7898 16.7714 19.9653 16.7598L19.9438 16.7598C18.1093 16.7598 16.62 18.2491 16.62 20.0835C16.62 21.9179 18.1093 23.4072 19.9438 23.4072L19.9653 23.4072C20.5852 23.4033 21.1652 23.2292 21.6606 22.9294L27.9261 26.3269C27.924 26.3748 27.923 26.423 27.923 26.4715C27.923 27.0948 28.095 27.6783 28.3941 28.1772C26.2631 30.4012 23.2641 31.7871 19.9438 31.7871C13.4844 31.7871 8.24015 26.5429 8.24015 20.0835C8.24015 13.6241 13.4844 8.3799 19.9438 8.3799C26.4032 8.3799 31.6474 13.6241 31.6474 20.0835C31.6474 20.8543 32.2732 21.4802 33.044 21.4802C33.8149 21.4802 34.4407 20.8543 34.4407 20.0835C34.4407 12.0824 27.9448 5.5866 19.9438 5.5866C11.9427 5.5866 5.44685 12.0824 5.44685 20.0835C5.44685 28.0846 11.9427 34.5804 19.9438 34.5804C24.2297 34.5804 28.0838 32.7169 30.7384 29.7565ZM19.9438 19.5531C19.651 19.5531 19.4133 19.7908 19.4133 20.0835C19.4133 20.3763 19.651 20.6139 19.9438 20.6139L19.9574 20.6138C20.1196 20.6097 20.2638 20.5326 20.3583 20.4142C20.3644 20.406 20.3705 20.3979 20.3767 20.3899C20.4381 20.3034 20.4742 20.1976 20.4742 20.0835C20.4742 19.7953 20.2439 19.5605 19.9574 19.5533L19.9438 19.5531Z" fill="#7DF5CA"/>
</g>
<defs>
<clipPath id="clip0_8_233">
<rect width="40" height="40" fill="white"/>
</clipPath>
</defs>
</svg>
