<svg width="32" height="35" viewBox="0 0 32 35" fill="none" xmlns="http://www.w3.org/2000/svg">
<path d="M19.5496 16.9001C20.1996 14.1668 17.8162 11.7833 15.0829 12.4333C13.7996 12.75 12.7496 13.8 12.433 15.0835C11.783 17.8168 14.1662 20.2 16.8996 19.55C18.1996 19.2333 19.2496 18.1835 19.5496 16.9001Z" fill="#386FFD"/>
<path d="M6.0349 27.95C5.73488 27.95 5.41821 27.8334 5.18488 27.6167C1.95155 24.6167 0.101562 20.3834 0.101562 15.9834C0.101562 7.21667 7.23488 0.083374 16.0015 0.083374C24.7682 0.083374 31.9015 7.21667 31.9015 15.9834C31.9015 20.4167 30.1182 24.5167 26.8848 27.5667C26.3848 28.0334 25.5848 28.0167 25.1182 27.5167C24.6515 27.0167 24.6682 26.2167 25.1682 25.75C27.9015 23.1834 29.4015 19.7334 29.4015 16C29.4015 8.61669 23.3848 2.60006 16.0015 2.60006C8.61821 2.60006 2.60156 8.61669 2.60156 16C2.60156 19.7667 4.11821 23.2334 6.88488 25.8C7.38488 26.2667 7.41823 27.0667 6.95156 27.5667C6.70156 27.8167 6.36823 27.95 6.0349 27.95Z" fill="#7DF5CA"/>
<path d="M22.6659 23.5C22.3659 23.5 22.0493 23.3833 21.8159 23.1667C21.3159 22.7 21.2826 21.9 21.7659 21.4C23.1493 19.9333 23.9159 18 23.9159 16C23.9159 11.6334 20.3659 8.1001 16.0159 8.1001C11.6659 8.1001 8.11597 11.6501 8.11597 16C8.11597 18.0167 8.88262 19.9333 10.2659 21.4C10.7326 21.9 10.716 22.7 10.216 23.1667C9.71597 23.65 8.91597 23.6168 8.4493 23.1168C6.63263 21.1835 5.61597 18.65 5.61597 16C5.61597 10.2667 10.2826 5.6001 16.0159 5.6001C21.7492 5.6001 26.4159 10.2667 26.4159 16C26.4159 18.65 25.4159 21.1835 23.5826 23.1168C23.3326 23.3668 22.9993 23.5 22.6659 23.5Z" fill="#7DF5CA"/>
<path d="M13.1678 25.7667L10.7678 28.7502C8.86785 31.1335 10.5512 34.65 13.6012 34.65H18.3845C21.4345 34.65 23.1345 31.1168 21.2178 28.7502L18.8178 25.7667C17.3845 23.95 14.6178 23.95 13.1678 25.7667Z" fill="#386FFD"/>
</svg>
