<svg width="24" height="20" viewBox="0 0 24 20" fill="none" xmlns="http://www.w3.org/2000/svg">
<path d="M7.54766 19.75C4.76815 19.75 2.17954 18.9353 0 17.5339C1.28905 17.6905 2.59632 17.5912 3.84693 17.2418C5.09753 16.8924 6.2669 16.2998 7.28803 15.4978C6.26026 15.479 5.26418 15.1389 4.43955 14.5254C3.61492 13.9118 3.00315 13.0555 2.69006 12.0767C2.99114 12.1355 3.29985 12.1661 3.61511 12.1661C4.06454 12.1661 4.50089 12.105 4.9165 11.9959C3.80234 11.7704 2.8004 11.1667 2.08036 10.2873C1.36032 9.40783 0.966437 8.30661 0.965411 7.17011V7.10577C1.64803 7.48597 2.41191 7.6969 3.19295 7.72086C2.51806 7.27132 1.96488 6.66186 1.5827 5.94678C1.20051 5.2317 1.00119 4.43321 1.0025 3.62245C1.0025 2.72381 1.24794 1.87533 1.67011 1.149C2.90637 2.66968 4.44877 3.91336 6.19714 4.79925C7.9455 5.68514 9.86071 6.19343 11.8184 6.2911C11.5731 5.23575 11.6827 4.12899 12.1301 3.14219C12.5776 2.15539 13.338 1.3436 14.2936 0.832514C15.2492 0.321428 16.3467 0.139559 17.4161 0.315067C18.4855 0.490575 19.4673 1.01367 20.2093 1.80335C21.3114 1.58526 22.3685 1.18183 23.3357 0.610255C22.9677 1.74991 22.1992 2.71772 21.1725 3.33453C22.1482 3.21807 23.1011 2.95711 24 2.56022C23.3372 3.54741 22.5056 4.41016 21.5434 5.10891C21.5521 5.3194 21.5587 5.53206 21.5587 5.74472C21.5576 12.2468 16.604 19.7511 7.54766 19.75Z" fill="white"/>
</svg>
