<svg width="30" height="40" viewBox="0 0 30 40" fill="none" xmlns="http://www.w3.org/2000/svg">
<path fill-rule="evenodd" clip-rule="evenodd" d="M3.75 25C3.41848 25 3.10054 24.8683 2.86612 24.6339C2.6317 24.3995 2.5 24.0815 2.5 23.75V3.75C2.5 3.41848 2.6317 3.10054 2.86612 2.86612C3.10054 2.6317 3.41848 2.5 3.75 2.5H26.25C26.5815 2.5 26.8995 2.6317 27.1339 2.86612C27.3683 3.10054 27.5 3.41848 27.5 3.75V23.75C27.5 24.0815 27.3683 24.3995 27.1339 24.6339C26.8995 24.8683 26.5815 25 26.25 25H21.25C20.9185 25 20.6005 25.1317 20.3661 25.3661C20.1317 25.6005 20 25.9185 20 26.25C20 26.5815 20.1317 26.8995 20.3661 27.1339C20.6005 27.3683 20.9185 27.5 21.25 27.5H26.25C27.2446 27.5 28.1984 27.1049 28.9017 26.4017C29.6049 25.6984 30 24.7446 30 23.75V3.75C30 2.75544 29.6049 1.80161 28.9017 1.09835C28.1984 0.395088 27.2446 0 26.25 0L3.75 0C2.75544 0 1.80161 0.395088 1.09835 1.09835C0.395088 1.80161 0 2.75544 0 3.75V23.75C0 24.7446 0.395088 25.6984 1.09835 26.4017C1.80161 27.1049 2.75544 27.5 3.75 27.5H8.75C9.08152 27.5 9.39946 27.3683 9.63388 27.1339C9.8683 26.8995 10 26.5815 10 26.25C10 25.9185 9.8683 25.6005 9.63388 25.3661C9.39946 25.1317 9.08152 25 8.75 25H3.75Z" fill="#7DF5CA"/>
<path fill-rule="evenodd" clip-rule="evenodd" d="M14.1151 39.635C14.2312 39.7514 14.3692 39.8438 14.521 39.9068C14.6729 39.9698 14.8357 40.0022 15.0001 40.0022C15.1645 40.0022 15.3273 39.9698 15.4792 39.9068C15.6311 39.8438 15.769 39.7514 15.8851 39.635L23.3851 32.135C23.6198 31.9003 23.7517 31.5819 23.7517 31.25C23.7517 30.9181 23.6198 30.5997 23.3851 30.365C23.1504 30.1303 22.8321 29.9984 22.5001 29.9984C22.1682 29.9984 21.8498 30.1303 21.6151 30.365L16.2501 35.7325V13.75C16.2501 13.4185 16.1184 13.1005 15.884 12.8661C15.6496 12.6317 15.3316 12.5 15.0001 12.5C14.6686 12.5 14.3507 12.6317 14.1162 12.8661C13.8818 13.1005 13.7501 13.4185 13.7501 13.75V35.7325L8.38511 30.365C8.1504 30.1303 7.83205 29.9984 7.50011 29.9984C7.16818 29.9984 6.84983 30.1303 6.61511 30.365C6.3804 30.5997 6.24854 30.9181 6.24854 31.25C6.24854 31.5819 6.3804 31.9003 6.61511 32.135L14.1151 39.635Z" fill="#386FFD"/>
</svg>
