<svg width="40" height="40" viewBox="0 0 40 40" fill="none" xmlns="http://www.w3.org/2000/svg">
<path d="M3.75 2.5C3.41848 2.5 3.10054 2.6317 2.86612 2.86612C2.6317 3.10054 2.5 3.41848 2.5 3.75V11.25C2.5 11.5815 2.3683 11.8995 2.13388 12.1339C1.89946 12.3683 1.58152 12.5 1.25 12.5C0.918479 12.5 0.600537 12.3683 0.366117 12.1339C0.131696 11.8995 0 11.5815 0 11.25V3.75C0 2.75544 0.395088 1.80161 1.09835 1.09835C1.80161 0.395088 2.75544 0 3.75 0L11.25 0C11.5815 0 11.8995 0.131696 12.1339 0.366117C12.3683 0.600537 12.5 0.918479 12.5 1.25C12.5 1.58152 12.3683 1.89946 12.1339 2.13388C11.8995 2.3683 11.5815 2.5 11.25 2.5H3.75ZM27.5 1.25C27.5 0.918479 27.6317 0.600537 27.8661 0.366117C28.1005 0.131696 28.4185 0 28.75 0L36.25 0C37.2446 0 38.1984 0.395088 38.9016 1.09835C39.6049 1.80161 40 2.75544 40 3.75V11.25C40 11.5815 39.8683 11.8995 39.6339 12.1339C39.3995 12.3683 39.0815 12.5 38.75 12.5C38.4185 12.5 38.1005 12.3683 37.8661 12.1339C37.6317 11.8995 37.5 11.5815 37.5 11.25V3.75C37.5 3.41848 37.3683 3.10054 37.1339 2.86612C36.8995 2.6317 36.5815 2.5 36.25 2.5H28.75C28.4185 2.5 28.1005 2.3683 27.8661 2.13388C27.6317 1.89946 27.5 1.58152 27.5 1.25ZM1.25 27.5C1.58152 27.5 1.89946 27.6317 2.13388 27.8661C2.3683 28.1005 2.5 28.4185 2.5 28.75V36.25C2.5 36.5815 2.6317 36.8995 2.86612 37.1339C3.10054 37.3683 3.41848 37.5 3.75 37.5H11.25C11.5815 37.5 11.8995 37.6317 12.1339 37.8661C12.3683 38.1005 12.5 38.4185 12.5 38.75C12.5 39.0815 12.3683 39.3995 12.1339 39.6339C11.8995 39.8683 11.5815 40 11.25 40H3.75C2.75544 40 1.80161 39.6049 1.09835 38.9016C0.395088 38.1984 0 37.2446 0 36.25L0 28.75C0 28.4185 0.131696 28.1005 0.366117 27.8661C0.600537 27.6317 0.918479 27.5 1.25 27.5ZM38.75 27.5C39.0815 27.5 39.3995 27.6317 39.6339 27.8661C39.8683 28.1005 40 28.4185 40 28.75V36.25C40 37.2446 39.6049 38.1984 38.9016 38.9016C38.1984 39.6049 37.2446 40 36.25 40H28.75C28.4185 40 28.1005 39.8683 27.8661 39.6339C27.6317 39.3995 27.5 39.0815 27.5 38.75C27.5 38.4185 27.6317 38.1005 27.8661 37.8661C28.1005 37.6317 28.4185 37.5 28.75 37.5H36.25C36.5815 37.5 36.8995 37.3683 37.1339 37.1339C37.3683 36.8995 37.5 36.5815 37.5 36.25V28.75C37.5 28.4185 37.6317 28.1005 37.8661 27.8661C38.1005 27.6317 38.4185 27.5 38.75 27.5Z" fill="#7DF5CA"/>
<path d="M7.5 35C7.5 35 5 35 5 32.5C5 30 7.5 22.5 20 22.5C32.5 22.5 35 30 35 32.5C35 35 32.5 35 32.5 35H7.5ZM27.5 12.5C27.5 14.4891 26.7098 16.3968 25.3033 17.8033C23.8968 19.2098 21.9891 20 20 20C18.0109 20 16.1032 19.2098 14.6967 17.8033C13.2902 16.3968 12.5 14.4891 12.5 12.5C12.5 10.5109 13.2902 8.60322 14.6967 7.1967C16.1032 5.79018 18.0109 5 20 5C21.9891 5 23.8968 5.79018 25.3033 7.1967C26.7098 8.60322 27.5 10.5109 27.5 12.5Z" fill="#386FFD"/>
</svg>
